/* XPM */
static char *image_xpm[] = {
/* width height ncolors chars_per_pixel */
"16 16 10 1",
"  c #303030",
". c #2e402e",
"+ c #259a24",
"@ c #277f27",
"# c #2c552b",
"$ c #2c532b",
"% c #259b24",
"& c #259224",
"* c #2e3f2e",
"= c #2c542b",
"                ",
"                ",
"      .##.      ",
"    *@%%%%@*    ",
"   *&%+%%+%&*   ",
"   @%%%%%%%%@   ",
"  *%+%%%%%%+%*  ",
"  $%%%%%%%%%%=  ",
"  $%%%%%%%%%%=  ",
"  *%+%%%%%%+%*  ",
"   @%%%%%%%%@   ",
"   *&%+%%+%&*   ",
"    *@%%%%@*    ",
"      .##.      ",
"                ",
"                ",
};