/* XPM */
static char * closes_xpm[] = {
"16 16 6 1",
" 	c None",
".	c #303030",
"+	c #F99157",
"@	c #F7925A",
"#	c #363331",
"$	c #F6945D",
"................",
"................",
"................",
"................",
"................",
".....+...+......",
"......@#$#......",
".......+#.......",
"......@#@.......",
".....@#.#@#.....",
"................",
"................",
"................",
"................",
"................",
"................"};
