/* XPM */
static char * hide_active_xpm[] = {
"26 26 24 1",
" 	c None",
".	c #6A6A6A",
"+	c #E5E5E5",
"@	c #D6D6D6",
"#	c #D5CFC1",
"$	c #DABB72",
"%	c #E0AF36",
"&	c #E7AF20",
"*	c #DABB71",
"=	c #D8CAA8",
"-	c #E6B438",
";	c #F5C132",
">	c #F9C738",
",	c #D7C9A7",
"'	c #D5D5D5",
")	c #D6D0C2",
"!	c #E5B438",
"~	c #F8C536",
"{	c #F8C637",
"]	c #F9C637",
"^	c #E1AF36",
"/	c #FAC738",
"(	c #E8B020",
"_	c #DBBB72",
"..........................",
"++++++++++++++++++++++++++",
"@@@@@@@@@@@@@@@@@@@@@@@@@@",
"@@@@@@@@@@@@@@@@@@@@@@@@@@",
"@@@@@@@@@@@@@@@@@@@@@@@@@@",
"@@@@@@@@@@@@@@@@@@@@@@@@@@",
"@@@@@@@@@@@@@@@@@@@@@@@@@@",
"@@@@@@@@@#$%&%*#@@@@@@@@@@",
"@@@@@@@@=-;>>>;-,'@@@@@@@@",
"@@@@@@@)!~{~~~{~!)@@@@@@@@",
"@@@@@@@$;]~~~~~];$@@@@@@@@",
"@@@@@@@^/~~~~~~~/^@@@@@@@@",
"@@@@@@@(/~~~~~~~/(@@@@@@@@",
"@@@@@@@^/~~~~~~~/^@@@@@@@@",
"@@@@@@@$;]~~~~~];$@@@@@@@@",
"@@@@@@@)!~{~~~{~!)@@@@@@@@",
"@@@@@@@@=-;>>>;-=@@@@@@@@@",
"@@@@@@@@@)_^&^_)@@@@@@@@@@",
"@@@@@@@@@@@@@@@@@@@@@@@@@@",
"@@@@@@@@@@@@@@@@@@@@@@@@@@",
"@@@@@@@@@@@@@@@@@@@@@@@@@@",
"@@@@@@@@@@@@@@@@@@@@@@@@@@",
"@@@@@@@@@@@@@@@@@@@@@@@@@@",
"@@@@@@@@@@@@@@@@@@@@@@@@@@",
"@@@@@@@@@@@@@@@@@@@@@@@@@@",
"@@@@@@@@@@@@@@@@@@@@@@@@@@"};
