/* XPM */
static char * max2_xpm[] = {
"16 16 14 1",
" 	c None",
".	c #303030",
"+	c #9A6345",
"@	c #F99157",
"#	c #986244",
"$	c #A06646",
"%	c #F58F56",
"&	c #A66947",
"*	c #A36746",
"=	c #F69056",
"-	c #A86A47",
";	c #313030",
">	c #A16646",
",	c #363331",
"................",
"................",
"................",
"................",
"................",
"......+@@@......",
".....#.$%@......",
".....%&.*@......",
".....=%-;>......",
".....%@@&;......",
".....,,,,.......",
"................",
"................",
"................",
"................",
"................"};
