/* XPM */
static char * toolbar22_xpm[] = {
"10 18 4 1",
" 	c None",
".	c #303030",
"+	c #E48753",
"@	c #E18552",
"..........",
"..........",
"..........",
"..........",
"..........",
"..........",
"..........",
"..........",
"..........",
"..........",
"..........",
"..........",
"..........",
"..........",
"..........",
"..........",
"+@@@@@@@@+",
"+@@@@@@@@+"};
