/* XPM */
static char * toolbar2d2up_xpm[] = {
"10 18 5 1",
" 	c None",
".	c #5F6A85",
"+	c #5C6780",
"@	c #626E8A",
"#	c #2D2D2D",
".++++++++.",
"+@@@@@@@@+",
".++++++++.",
"##########",
"##########",
"##########",
"##########",
"##########",
"##########",
"##########",
"##########",
"##########",
"##########",
"##########",
"##########",
"##########",
"##########",
"##########"};
