/* XPM */
static char *image_xpm[] = {
/* width height ncolors chars_per_pixel */
"16 16 13 1",
"  c #303030",
". c #ff0000",
"+ c #fe0000",
"@ c #c90c0c",
"# c #ca0c0c",
"$ c #502828",
"% c #751f1f",
"& c #4e2828",
"* c #ef0303",
"= c #4d2929",
"- c #761f1f",
"; c #4f2828",
"> c #771f1f",
"                ",
"                ",
"      $>>$      ",
"    =#....#=    ",
"   =*.+..+.*=   ",
"   @........#   ",
"  &.+......+.;  ",
"  %..........-  ",
"  %..........-  ",
"  &.+......+.;  ",
"   @........#   ",
"   =*.+..+.*=   ",
"    =#....#=    ",
"      $>>$      ",
"                ",
"                ",
};