/* XPM */
static char *image_xpm[] = {
/* width height ncolors chars_per_pixel */
"16 16 12 1",
"  c #303030",
". c #b72126",
"+ c #d71d23",
"@ c #6e292b",
"# c #4a2d2e",
"$ c #6c292b",
"% c #e41c23",
"& c #b62126",
"* c #4c2c2d",
"= c #e51c23",
"- c #492d2e",
"; c #6d292b",
"                ",
"                ",
"      *@@*      ",
"    -.====.-    ",
"   -+=%==%=+-   ",
"   &========&   ",
"  #=%======%=#  ",
"  $==========;  ",
"  $==========;  ",
"  #=%======%=#  ",
"   &========&   ",
"   -+=%==%=+-   ",
"    -.====.-    ",
"      *@@*      ",
"                ",
"                ",
};