/* XPM */
static char * close2_xpm[] = {
"16 16 7 1",
" 	c None",
".	c #FF3334",
"+	c #363030",
"@	c #F93334",
"#	c #3C3030",
"$	c #F33233",
"%	c #F23233",
"................",
"................",
"................",
"................",
"................",
".....+...+......",
"......+@#$......",
".......+@.......",
"......+%+.......",
".....#@.@#@.....",
".....@...@......",
"................",
"................",
"................",
"................",
"................"};
