/* XPM */
static char * cls_xpm[] = {
"16 16 7 1",
" 	c None",
".	c #303030",
"+	c #363331",
"@	c #3D3632",
"#	c #F99157",
"$	c #F38E56",
"%	c #3C3632",
"................",
"................",
"...+++++++++....",
"..@#########+...",
"..@#########+...",
"..@##.###.##+...",
"..@###+$%$##+...",
"..@####.$###+...",
"..@###+$+###+...",
"..@##+$#$+$#+...",
"..@#########+...",
"..@#########+...",
"...+++++++++....",
"................",
"................",
"................"};
