/* XPM */
static char * cls1_xpm[] = {
"16 16 13 1",
" 	c None",
".	c #303030",
"+	c #825740",
"@	c #AC6C48",
"#	c #CA7A4E",
"$	c #F99157",
"%	c #CC7B4E",
"&	c #363331",
"*	c #F38E56",
"=	c #3C3632",
"-	c #C7794D",
";	c #8C5D42",
">	c #BC744B",
"................",
"................",
"................",
"................",
"....+@@@@@+.....",
"....#.$$$.%.....",
"....#$&*=*%.....",
"....#$$.*$%.....",
"....#$&*&$%.....",
"....#&*$*&-.....",
"....;>>>>>;.....",
"................",
"................",
"................",
"................",
"................"};
