/* XPM */
static char * clss_xpm[] = {
"16 16 43 1",
" 	c None",
".	c #303030",
"+	c #333232",
"@	c #6A4241",
"#	c #984543",
"$	c #B0423F",
"%	c #694141",
"&	c #323131",
"*	c #3F3736",
"=	c #9D4442",
"-	c #DA322F",
";	c #DC322F",
">	c #9B4342",
",	c #3E3737",
"'	c #323232",
")	c #9C4342",
"!	c #E25451",
"~	c #E4615F",
"{	c #E25350",
"]	c #9A4442",
"^	c #694342",
"/	c #DB3330",
"(	c #E35B59",
"_	c #FDF1F1",
":	c #FEF7F7",
"<	c #E56562",
"[	c #E56563",
"}	c #694443",
"|	c #974341",
"1	c #E35D5A",
"2	c #FDF3F3",
"3	c #FFFFFF",
"4	c #FDF2F2",
"5	c #954342",
"6	c #AE4240",
"7	c #E35956",
"8	c #AF4240",
"9	c #E14F4C",
"0	c #FBE9E9",
"a	c #FDF1F0",
"b	c #E25855",
"c	c #FBE8E8",
"d	c #AE4542",
"................",
"................",
"....+@#$$#%&....",
"...*=-;;;;->,...",
"..');!~;;~{;]'..",
"..^/(_:<[:_(-}..",
"..|;123_4321;5..",
"..6;;7_33_7;;6..",
"..8;;(_33_(;;6..",
"..|;(_3_43_(;5..",
"..^/90abbac9-}..",
"..');!~;;~{;]'..",
"...*=-;;;;->,...",
"....+@#dd#%&....",
"................",
"................"};
