/* XPM */
static char * maximize_active_xpm[] = {
"26 26 41 1",
" 	c None",
".	c #6A6A6A",
"+	c #E5E5E5",
"@	c #E4E4E4",
"#	c #D6D6D6",
"$	c #C8D5C9",
"%	c #7FCF84",
"&	c #3CCD46",
"*	c #23D22F",
"=	c #34CE3F",
"-	c #67CE6E",
";	c #BBD4BD",
">	c #B6D2B8",
",	c #45D24F",
"'	c #33E440",
")	c #3BEC49",
"!	c #37E945",
"~	c #31D63D",
"{	c #98D19D",
"]	c #D5D5D5",
"^	c #CDD4CD",
"/	c #42D14C",
"(	c #38E946",
"_	c #3AEB48",
":	c #39EA47",
"<	c #39EB48",
"[	c #36D842",
"}	c #B1D3B3",
"|	c #7FCD84",
"1	c #34E541",
"2	c #36E744",
"3	c #65D16C",
"4	c #D2D5D3",
"5	c #43CD4C",
"6	c #3AEC49",
"7	c #3BED49",
"8	c #32D23D",
"9	c #D0D5D1",
"0	c #2CD137",
"a	c #26D633",
"b	c #D0D5D0",
"..........................",
"+++++++++@@@++++++++++++++",
"##########################",
"##########################",
"##########################",
"##########################",
"##########################",
"#########$%&*=-;##########",
"########>,')))!~{]########",
"#######^/(_::::<[}########",
"#######|1_::::::234#######",
"#######56:::::::789#######",
"#######0_:::::::)ab#######",
"#######56:::::::789#######",
"#######|1_::::::234#######",
"#######^/(_::::<[}########",
"########>,')))!~{]########",
"#########$%&*=-;##########",
"##########################",
"##########################",
"##########################",
"##########################",
"##########################",
"##########################",
"##########################",
"##########################"};
