/* XPM */
static char * toolbar1e2_xpm[] = {
"10 18 6 1",
" 	c None",
".	c #1E1E1E",
"+	c #1F1F1F",
"@	c #5E6984",
"#	c #5A657E",
"$	c #626E8A",
".++++++++.",
"+........+",
"+........+",
"+........+",
"+........+",
"+........+",
"+........+",
"+........+",
"+........+",
"+........+",
"+........+",
"+........+",
"+........+",
"+........+",
"+........+",
"@########@",
"#$$$$$$$$#",
"@########@"};
