/* XPM */
static char * toolbar1e_xpm[] = {
"10 18 3 1",
" 	c None",
".	c #1E1E1E",
"+	c #1F1F1F",
".++++++++.",
"+........+",
"+........+",
"+........+",
"+........+",
"+........+",
"+........+",
"+........+",
"+........+",
"+........+",
"+........+",
"+........+",
"+........+",
"+........+",
"+........+",
"+........+",
"+........+",
".++++++++."};
