/* XPM */
static char * toolbar2d2_xpm[] = {
"10 18 5 1",
" 	c None",
".	c #2D2D2D",
"+	c #5F6A85",
"@	c #5C6780",
"#	c #626E8A",
"..........",
"..........",
"..........",
"..........",
"..........",
"..........",
"..........",
"..........",
"..........",
"..........",
"..........",
"..........",
"..........",
"..........",
"..........",
"+@@@@@@@@+",
"@########@",
"+@@@@@@@@+"};
