/* XPM */
static char * toolbarr_xpm[] = {
"10 18 4 1",
" 	c None",
".	c #626E89",
"+	c #606C87",
"@	c #626E8A",
".++++++++.",
"+@@@@@@@@+",
"+@@@@@@@@+",
"+@@@@@@@@+",
"+@@@@@@@@+",
"+@@@@@@@@+",
"+@@@@@@@@+",
"+@@@@@@@@+",
"+@@@@@@@@+",
"+@@@@@@@@+",
"+@@@@@@@@+",
"+@@@@@@@@+",
"+@@@@@@@@+",
"+@@@@@@@@+",
"+@@@@@@@@+",
"+@@@@@@@@+",
"+@@@@@@@@+",
".++++++++."};
